<svg xmlns="http://www.w3.org/2000/svg" width="960" height="720" viewBox="0 0 960 720">
  <rect width="100%" height="100%" fill="#f5f7fa"/>
  <text x="480" y="32" text-anchor="middle" font-family="sans-serif" font-size="20" fill="#334155">会員詳細イメージ</text>

  <rect x="40" y="56" width="880" height="620" rx="12" fill="#ffffff" stroke="#cbd5e1"/>
  <text x="70" y="84" font-family="sans-serif" font-size="14" font-weight="600" fill="#0f172a">会員情報</text>

  <!-- 基本情報テーブル -->
  <rect x="60" y="100" width="840" height="120" rx="8" fill="#f8fafc" stroke="#cbd5e1"/>
  <text x="80" y="125" font-family="sans-serif" font-size="12" fill="#475569">番号: #101</text>
  <text x="220" y="125" font-family="sans-serif" font-size="12" fill="#475569">e-mail: user@example.com</text>
  <text x="80" y="150" font-family="sans-serif" font-size="12" fill="#16a34a">状態: 有効</text>
  <text x="80" y="175" font-family="sans-serif" font-size="12" fill="#94a3b8">作成日: 2025/11/01</text>
  <text x="260" y="175" font-family="sans-serif" font-size="12" fill="#94a3b8">最終更新: 2025/11/24</text>

  <!-- ショップ所属カード -->
  <rect x="60" y="240" width="840" height="140" rx="8" fill="#ffffff" stroke="#cbd5e1"/>
  <text x="80" y="265" font-family="sans-serif" font-size="12" fill="#475569" font-weight="600">ショップ所属</text>
  <text x="80" y="285" font-family="sans-serif" font-size="12" fill="#475569">デフォルトShop</text>
  <text x="80" y="305" font-family="sans-serif" font-size="12" fill="#16a34a">状態: 有効</text>
  <text x="80" y="325" font-family="sans-serif" font-size="12" fill="#475569">期限: なし</text>
  <rect x="80" y="340" width="160" height="24" rx="6" fill="#dc2626"/>
  <text x="160" y="356" text-anchor="middle" font-family="sans-serif" font-size="11" fill="#ffffff">所属を解除する</text>
  <rect x="260" y="340" width="190" height="24" rx="6" fill="#0ea5e9"/>
  <text x="360" y="356" text-anchor="middle" font-family="sans-serif" font-size="11" fill="#ffffff">期限を設定/変更する</text>

  <!-- 視聴権カード -->
  <rect x="60" y="400" width="840" height="140" rx="8" fill="#ffffff" stroke="#cbd5e1"/>
  <text x="80" y="425" font-family="sans-serif" font-size="12" fill="#475569" font-weight="600">視聴権</text>
  <rect x="80" y="440" width="800" height="24" fill="#f8fafc" stroke="#e2e8f0"/>
  <text x="90" y="456" font-family="sans-serif" font-size="12" fill="#475569">SKU #201 (HD版) / active / 期限: なし</text>
  <rect x="80" y="468" width="800" height="24" fill="#ffffff" stroke="#e2e8f0"/>
  <text x="90" y="484" font-family="sans-serif" font-size="12" fill="#475569">Item #15 / active / 期限: 2025/12/31</text>
  <text x="80" y="508" font-family="sans-serif" font-size="12" fill="#94a3b8">最新50件まで表示（一覧は管理画面で確認）</text>

  <!-- 操作ボタン群 -->
  <rect x="60" y="560" width="840" height="80" rx="8" fill="#ffffff" stroke="#cbd5e1"/>
  <text x="80" y="585" font-family="sans-serif" font-size="12" fill="#475569" font-weight="600">操作</text>
  <rect x="80" y="600" width="170" height="26" rx="6" fill="#ffffff" stroke="#0ea5e9"/>
  <text x="165" y="617" text-anchor="middle" font-family="sans-serif" font-size="12" fill="#0ea5e9">会員としてログイン</text>
  <rect x="270" y="600" width="130" height="26" rx="6" fill="#dc2626"/>
  <text x="335" y="617" text-anchor="middle" font-family="sans-serif" font-size="12" fill="#ffffff">退会させる</text>
  <rect x="420" y="600" width="120" height="26" rx="6" fill="#ffffff" stroke="#cbd5e1"/>
  <text x="480" y="617" text-anchor="middle" font-family="sans-serif" font-size="12" fill="#475569">会員一覧</text>

  <text x="480" y="700" text-anchor="middle" font-family="sans-serif" font-size="12" fill="#94a3b8">画面イメージ（実際のUIと一部異なる場合があります）</text>
</svg>
